<svg width="290" height="32" viewBox="0 0 290 32" fill="none" xmlns="http://www.w3.org/2000/svg">
<g clip-path="url(#clip0_311_281)">
<path d="M8 13.0963C9.06667 8.82962 11.7333 6.69629 16 6.69629C22.4 6.69629 23.2 11.4963 26.4 12.2963C28.5333 12.8296 30.4 12.0296 32 9.89629C30.9333 14.163 28.2667 16.2963 24 16.2963C17.6 16.2963 16.8 11.4963 13.6 10.6963C11.4667 10.163 9.6 10.963 8 13.0963ZM0 22.6963C1.06667 18.4296 3.73333 16.2963 8 16.2963C14.4 16.2963 15.2 21.0963 18.4 21.8963C20.5333 22.4296 22.4 21.6296 24 19.4963C22.9333 23.763 20.2667 25.8963 16 25.8963C9.6 25.8963 8.8 21.0963 5.6 20.2963C3.46667 19.763 1.6 20.563 0 22.6963Z" fill="white"/>
<path d="M44.6094 16.1016H49.2188L47.9102 12.0977C47.819 11.8112 47.7148 11.4922 47.5977 11.1406C47.4935 10.7891 47.3763 10.4049 47.2461 9.98828C47.1289 9.55859 47.0378 9.23958 46.9727 9.03125H46.8555C46.8164 9.16146 46.5039 10.1836 45.918 12.0977L44.6094 16.1016ZM39.9219 22L45.5078 6.55078H48.3398L53.9062 22H51.1719L49.9023 18.1719H43.9258L42.6562 22H39.9219ZM56.9727 16.3555C56.9727 17.5794 57.207 18.5365 57.6758 19.2266C58.1445 19.9036 58.7695 20.2422 59.5508 20.2422C60.332 20.2422 60.957 19.8971 61.4258 19.207C61.8945 18.5039 62.1289 17.5534 62.1289 16.3555C62.1289 15.2096 61.901 14.2786 61.4453 13.5625C60.9896 12.8464 60.3646 12.4883 59.5703 12.4883C58.75 12.4883 58.112 12.8464 57.6562 13.5625C57.2005 14.2786 56.9727 15.2096 56.9727 16.3555ZM54.4336 16.3555C54.4336 14.5195 54.8828 13.0677 55.7812 12C56.6797 10.9193 57.8255 10.3789 59.2188 10.3789C59.8698 10.3789 60.4492 10.5547 60.957 10.9062C61.4648 11.2448 61.8685 11.6745 62.168 12.1953V10.7305H64.5508V26.6094H62.0898V20.6719C61.8424 21.1406 61.4714 21.5378 60.9766 21.8633C60.4818 22.1888 59.8958 22.3516 59.2188 22.3516C58.6458 22.3516 58.0859 22.2344 57.5391 22C56.9922 21.7786 56.4779 21.4401 55.9961 20.9844C55.5273 20.5286 55.1497 19.9036 54.8633 19.1094C54.5768 18.3021 54.4336 17.3841 54.4336 16.3555ZM67.207 17.918V10.7305H69.6875V17.6055C69.6875 19.3633 70.306 20.2422 71.543 20.2422C72.2852 20.2422 72.8646 19.9297 73.2812 19.3047C73.6979 18.6667 73.9062 17.9115 73.9062 17.0391V10.7305H76.3672V22H73.9844V20.6914H73.9648C73.7826 21.0951 73.431 21.4727 72.9102 21.8242C72.4023 22.1758 71.7643 22.3516 70.9961 22.3516C70.5404 22.3516 70.1042 22.2799 69.6875 22.1367C69.2839 22.0065 68.8867 21.7917 68.4961 21.4922C68.1055 21.1797 67.793 20.7174 67.5586 20.1055C67.3242 19.4935 67.207 18.7643 67.207 17.918ZM80.8984 18.8359C80.8984 19.2526 81.0612 19.6042 81.3867 19.8906C81.7253 20.1641 82.168 20.3008 82.7148 20.3008C83.4961 20.3008 84.1602 20.0404 84.707 19.5195C85.2669 18.9987 85.5469 18.3151 85.5469 17.4688V16.4336C84.9479 16.5768 84.2253 16.7135 83.3789 16.8438C81.7253 17.1042 80.8984 17.7682 80.8984 18.8359ZM78.3984 19.0508C78.3984 16.9284 79.974 15.6328 83.125 15.1641C84.2708 14.9948 85.0781 14.8385 85.5469 14.6953V14.0898C85.5469 13.543 85.3516 13.1133 84.9609 12.8008C84.5703 12.4883 84.0495 12.332 83.3984 12.332C82.1615 12.332 81.0938 12.8398 80.1953 13.8555L78.6914 12.5664C79.2773 11.8763 79.974 11.3424 80.7812 10.9648C81.6016 10.5742 82.4609 10.3789 83.3594 10.3789C85.0391 10.3789 86.237 10.7891 86.9531 11.6094C87.6693 12.4167 88.0273 13.5495 88.0273 15.0078V22H85.625V20.5938C85.3906 21.0755 84.9805 21.4922 84.3945 21.8438C83.8216 22.1823 83.1445 22.3516 82.3633 22.3516C81.1263 22.3516 80.1562 22.0456 79.4531 21.4336C78.75 20.8216 78.3984 20.0273 78.3984 19.0508ZM95.8398 22V6.55078H105.684V8.75781H98.418V13.1719H104.922V15.3398H98.418V22H95.8398ZM107.305 22V10.7305H109.688V11.9414C109.935 11.5247 110.286 11.1602 110.742 10.8477C111.211 10.5352 111.764 10.3789 112.402 10.3789C113.001 10.3789 113.49 10.4635 113.867 10.6328V12.8789C113.372 12.7227 112.884 12.6445 112.402 12.6445C111.556 12.6445 110.905 12.9766 110.449 13.6406C110.007 14.2917 109.785 15.1641 109.785 16.2578V22H107.305ZM115.293 9.05078V6.33594H117.949V9.05078H115.293ZM115.41 22V10.7305H117.852V22H115.41ZM120.137 16.3164C120.137 14.5065 120.632 13.0677 121.621 12C122.624 10.9193 123.88 10.3789 125.391 10.3789C126.875 10.3789 128.099 10.9193 129.062 12C130.026 13.0807 130.508 14.487 130.508 16.2188C130.508 16.5573 130.488 16.8893 130.449 17.2148H122.637C122.637 18.0742 122.891 18.8164 123.398 19.4414C123.919 20.0534 124.629 20.3594 125.527 20.3594C126.152 20.3594 126.699 20.2096 127.168 19.9102C127.65 19.5977 128.014 19.2005 128.262 18.7188L130.332 19.4219C129.967 20.2552 129.375 20.9518 128.555 21.5117C127.734 22.0716 126.712 22.3516 125.488 22.3516C123.913 22.3516 122.624 21.8047 121.621 20.7109C120.632 19.6172 120.137 18.1523 120.137 16.3164ZM122.676 15.4766H127.988C127.988 14.6172 127.76 13.888 127.305 13.2891C126.849 12.6771 126.211 12.3711 125.391 12.3711C124.57 12.3711 123.913 12.6836 123.418 13.3086C122.936 13.9206 122.689 14.6432 122.676 15.4766ZM132.52 22V10.7305H134.922V12.1562H134.941C135.137 11.7396 135.495 11.3424 136.016 10.9648C136.549 10.5742 137.233 10.3789 138.066 10.3789C139.186 10.3789 140.078 10.724 140.742 11.4141C141.406 12.1042 141.738 13.2174 141.738 14.7539V22H139.258V15.0859C139.258 13.3542 138.672 12.4883 137.5 12.4883C136.784 12.4883 136.185 12.7747 135.703 13.3477C135.234 13.9206 135 14.6302 135 15.4766V22H132.52ZM143.633 16.3555C143.633 14.5065 144.082 13.0482 144.98 11.9805C145.892 10.9128 147.044 10.3789 148.438 10.3789C149.102 10.3789 149.674 10.5417 150.156 10.8672C150.651 11.1797 151.029 11.5508 151.289 11.9805V6.04297H153.75V22H151.367V20.5352C151.133 21.0299 150.742 21.4596 150.195 21.8242C149.661 22.1758 149.069 22.3516 148.418 22.3516C147.832 22.3516 147.266 22.2409 146.719 22.0195C146.172 21.7982 145.658 21.4596 145.176 21.0039C144.707 20.5482 144.329 19.9232 144.043 19.1289C143.77 18.3216 143.633 17.3971 143.633 16.3555ZM146.172 16.3555C146.172 17.5794 146.406 18.5365 146.875 19.2266C147.357 19.9036 147.988 20.2422 148.77 20.2422C149.525 20.2422 150.137 19.8971 150.605 19.207C151.087 18.5039 151.328 17.5534 151.328 16.3555C151.328 15.1966 151.094 14.2656 150.625 13.5625C150.169 12.8464 149.551 12.4883 148.77 12.4883C147.949 12.4883 147.311 12.8398 146.855 13.543C146.4 14.2461 146.172 15.1836 146.172 16.3555ZM155.723 19.6562L157.5 18.6211C158.281 19.7669 159.297 20.3398 160.547 20.3398C161.159 20.3398 161.641 20.2227 161.992 19.9883C162.357 19.7409 162.539 19.4154 162.539 19.0117C162.539 18.6862 162.389 18.3997 162.09 18.1523C161.803 17.9049 161.497 17.7227 161.172 17.6055C160.846 17.4753 160.358 17.306 159.707 17.0977C159.59 17.0586 159.505 17.0326 159.453 17.0195C158.984 16.8633 158.587 16.7135 158.262 16.5703C157.949 16.4141 157.617 16.2122 157.266 15.9648C156.914 15.7044 156.647 15.3854 156.465 15.0078C156.283 14.6172 156.191 14.168 156.191 13.6602C156.191 12.6706 156.608 11.8763 157.441 11.2773C158.275 10.6784 159.31 10.3789 160.547 10.3789C161.471 10.3789 162.344 10.6263 163.164 11.1211C163.984 11.6029 164.596 12.2214 165 12.9766L163.359 13.9727C162.591 12.918 161.66 12.3906 160.566 12.3906C159.967 12.3906 159.505 12.5143 159.18 12.7617C158.867 12.9961 158.711 13.3086 158.711 13.6992C158.711 14.0247 158.848 14.3177 159.121 14.5781C159.408 14.8255 159.701 15.0078 160 15.125C160.299 15.2422 160.723 15.3919 161.27 15.5742C161.413 15.6133 161.517 15.6458 161.582 15.6719C163.9 16.4141 165.059 17.5339 165.059 19.0312C165.059 19.9557 164.668 20.7435 163.887 21.3945C163.118 22.0326 162.025 22.3516 160.605 22.3516C159.512 22.3516 158.535 22.1107 157.676 21.6289C156.829 21.1471 156.178 20.4896 155.723 19.6562ZM175.137 16.1016H179.746L178.438 12.0977C178.346 11.8112 178.242 11.4922 178.125 11.1406C178.021 10.7891 177.904 10.4049 177.773 9.98828C177.656 9.55859 177.565 9.23958 177.5 9.03125H177.383C177.344 9.16146 177.031 10.1836 176.445 12.0977L175.137 16.1016ZM170.449 22L176.035 6.55078H178.867L184.434 22H181.699L180.43 18.1719H174.453L173.184 22H170.449ZM184.961 16.3555C184.961 14.5065 185.41 13.0482 186.309 11.9805C187.22 10.9128 188.372 10.3789 189.766 10.3789C190.43 10.3789 191.003 10.5417 191.484 10.8672C191.979 11.1797 192.357 11.5508 192.617 11.9805V6.04297H195.078V22H192.695V20.5352C192.461 21.0299 192.07 21.4596 191.523 21.8242C190.99 22.1758 190.397 22.3516 189.746 22.3516C189.16 22.3516 188.594 22.2409 188.047 22.0195C187.5 21.7982 186.986 21.4596 186.504 21.0039C186.035 20.5482 185.658 19.9232 185.371 19.1289C185.098 18.3216 184.961 17.3971 184.961 16.3555ZM187.5 16.3555C187.5 17.5794 187.734 18.5365 188.203 19.2266C188.685 19.9036 189.316 20.2422 190.098 20.2422C190.853 20.2422 191.465 19.8971 191.934 19.207C192.415 18.5039 192.656 17.5534 192.656 16.3555C192.656 15.1966 192.422 14.2656 191.953 13.5625C191.497 12.8464 190.879 12.4883 190.098 12.4883C189.277 12.4883 188.639 12.8398 188.184 13.543C187.728 14.2461 187.5 15.1836 187.5 16.3555ZM197.891 22V10.7305H200.293V12.0391C200.488 11.6615 200.84 11.2904 201.348 10.9258C201.855 10.5612 202.467 10.3789 203.184 10.3789C204.421 10.3789 205.332 11.0495 205.918 12.3906C206.009 12.2083 206.126 12.026 206.27 11.8438C206.426 11.6615 206.634 11.4466 206.895 11.1992C207.168 10.9518 207.513 10.7565 207.93 10.6133C208.359 10.457 208.822 10.3789 209.316 10.3789C211.621 10.3789 212.773 11.8372 212.773 14.7539V22H210.273V14.832C210.273 14.0508 210.163 13.4648 209.941 13.0742C209.72 12.6836 209.329 12.4883 208.77 12.4883C208.105 12.4883 207.565 12.7682 207.148 13.3281C206.745 13.875 206.543 14.5521 206.543 15.3594V22H204.102V14.7734C204.102 13.25 203.594 12.4883 202.578 12.4883C201.875 12.4883 201.328 12.7487 200.938 13.2695C200.56 13.7904 200.371 14.474 200.371 15.3203V22H197.891ZM215.449 9.05078V6.33594H218.105V9.05078H215.449ZM215.566 22V10.7305H218.008V22H215.566ZM220.938 22V10.7305H223.34V12.1562H223.359C223.555 11.7396 223.913 11.3424 224.434 10.9648C224.967 10.5742 225.651 10.3789 226.484 10.3789C227.604 10.3789 228.496 10.724 229.16 11.4141C229.824 12.1042 230.156 13.2174 230.156 14.7539V22H227.676V15.0859C227.676 13.3542 227.09 12.4883 225.918 12.4883C225.202 12.4883 224.603 12.7747 224.121 13.3477C223.652 13.9206 223.418 14.6302 223.418 15.4766V22H220.938ZM237.969 22V6.55078H244.004C245.618 6.55078 246.875 6.98698 247.773 7.85938C248.685 8.71875 249.141 9.85807 249.141 11.2773C249.141 12.7357 248.672 13.888 247.734 14.7344C246.81 15.5807 245.579 16.0039 244.043 16.0039H240.547V22H237.969ZM240.547 13.8164H243.691C244.577 13.8164 245.267 13.6016 245.762 13.1719C246.257 12.7422 246.504 12.1107 246.504 11.2773C246.504 10.457 246.263 9.83203 245.781 9.40234C245.299 8.97266 244.596 8.75781 243.672 8.75781H240.547V13.8164ZM252.129 18.8359C252.129 19.2526 252.292 19.6042 252.617 19.8906C252.956 20.1641 253.398 20.3008 253.945 20.3008C254.727 20.3008 255.391 20.0404 255.938 19.5195C256.497 18.9987 256.777 18.3151 256.777 17.4688V16.4336C256.178 16.5768 255.456 16.7135 254.609 16.8438C252.956 17.1042 252.129 17.7682 252.129 18.8359ZM249.629 19.0508C249.629 16.9284 251.204 15.6328 254.355 15.1641C255.501 14.9948 256.309 14.8385 256.777 14.6953V14.0898C256.777 13.543 256.582 13.1133 256.191 12.8008C255.801 12.4883 255.28 12.332 254.629 12.332C253.392 12.332 252.324 12.8398 251.426 13.8555L249.922 12.5664C250.508 11.8763 251.204 11.3424 252.012 10.9648C252.832 10.5742 253.691 10.3789 254.59 10.3789C256.27 10.3789 257.467 10.7891 258.184 11.6094C258.9 12.4167 259.258 13.5495 259.258 15.0078V22H256.855V20.5938C256.621 21.0755 256.211 21.4922 255.625 21.8438C255.052 22.1823 254.375 22.3516 253.594 22.3516C252.357 22.3516 251.387 22.0456 250.684 21.4336C249.98 20.8216 249.629 20.0273 249.629 19.0508ZM261.797 22V10.7305H264.199V12.1562H264.219C264.414 11.7396 264.772 11.3424 265.293 10.9648C265.827 10.5742 266.51 10.3789 267.344 10.3789C268.464 10.3789 269.355 10.724 270.02 11.4141C270.684 12.1042 271.016 13.2174 271.016 14.7539V22H268.535V15.0859C268.535 13.3542 267.949 12.4883 266.777 12.4883C266.061 12.4883 265.462 12.7747 264.98 13.3477C264.512 13.9206 264.277 14.6302 264.277 15.4766V22H261.797ZM272.91 16.3164C272.91 14.5065 273.405 13.0677 274.395 12C275.397 10.9193 276.654 10.3789 278.164 10.3789C279.648 10.3789 280.872 10.9193 281.836 12C282.799 13.0807 283.281 14.487 283.281 16.2188C283.281 16.5573 283.262 16.8893 283.223 17.2148H275.41C275.41 18.0742 275.664 18.8164 276.172 19.4414C276.693 20.0534 277.402 20.3594 278.301 20.3594C278.926 20.3594 279.473 20.2096 279.941 19.9102C280.423 19.5977 280.788 19.2005 281.035 18.7188L283.105 19.4219C282.741 20.2552 282.148 20.9518 281.328 21.5117C280.508 22.0716 279.486 22.3516 278.262 22.3516C276.686 22.3516 275.397 21.8047 274.395 20.7109C273.405 19.6172 272.91 18.1523 272.91 16.3164ZM275.449 15.4766H280.762C280.762 14.6172 280.534 13.888 280.078 13.2891C279.622 12.6771 278.984 12.3711 278.164 12.3711C277.344 12.3711 276.686 12.6836 276.191 13.3086C275.71 13.9206 275.462 14.6432 275.449 15.4766ZM285.508 22V6.04297H287.969V22H285.508Z" fill="white"/>
</g>
<defs>
<clipPath id="clip0_311_281">
<rect width="290" height="32" fill="white"/>
</clipPath>
</defs>
</svg>
