<svg width="61" height="61" viewBox="0 0 61 61" fill="none" xmlns="http://www.w3.org/2000/svg">
<path d="M30.1429 14.3571C14.2054 14.3571 1.26788 28.4197 1.26788 45.6697C1.26788 46.6072 2.01788 47.3571 2.95538 47.3571H57.3304C58.2679 47.3571 59.0179 46.6072 59.0179 45.6697C59.0179 28.4197 46.0804 14.3571 30.1429 14.3571ZM33.5179 44.0759L30.9866 36.0134C30.7054 35.1696 29.5804 35.1696 29.2991 36.0134L26.7679 44.0759H4.64288C5.39288 29.3571 16.5491 17.6384 30.1429 17.6384C43.7366 17.6384 54.8929 29.3571 55.6429 44.0759H33.5179Z" fill="white"/>
<path d="M30.1429 24.4821C29.2054 24.4821 28.4554 25.2321 28.4554 26.1696V28.6071C28.4554 29.5446 29.2054 30.2946 30.1429 30.2946C31.0804 30.2946 31.8304 29.5446 31.8304 28.6071V26.1696C31.8304 25.2321 31.0804 24.4821 30.1429 24.4821Z" fill="white"/>
<path d="M44.4866 31.5134L42.9866 33.1071C42.3304 33.7634 42.3304 34.7946 42.9866 35.4509C43.2679 35.7322 43.7366 35.9197 44.1116 35.9197C44.5804 35.9197 44.9554 35.7322 45.3304 35.4509L46.8304 33.8571C47.4866 33.2009 47.4866 32.1696 46.8304 31.5134C46.1741 30.8571 45.1429 30.8571 44.4866 31.5134Z" fill="white"/>
<path d="M15.7991 31.5134C15.2366 30.8571 14.1116 30.7634 13.4554 31.4196C12.7991 31.9821 12.7054 33.1071 13.3616 33.7634L14.7679 35.3571C15.0491 35.7321 15.5179 35.9196 15.9866 35.9196C16.3616 35.9196 16.7366 35.8259 17.1116 35.5446C17.7679 34.9821 17.8616 33.8571 17.2054 33.2009L15.7991 31.5134Z" fill="white"/>
</svg>
