<svg width="61" height="61" viewBox="0 0 61 61" fill="none" xmlns="http://www.w3.org/2000/svg">
<path d="M7.79464 26.8616C8.07589 26.8616 8.35714 26.8616 8.54464 26.7679L18.9509 23.1116C19.7946 22.8304 20.2634 21.8929 19.9821 21.0491C19.7009 20.2054 18.7634 19.7366 17.9196 20.0179L11.6384 22.2679C14.7321 13.7366 22.8884 7.9241 32.3571 7.9241C42.3884 7.9241 51.2009 14.5804 53.6384 24.2366C53.8259 25.0804 54.7634 25.6429 55.6071 25.4554C56.4509 25.2679 57.0134 24.3304 56.8259 23.4866C54.0134 12.4241 43.8884 4.7366 32.3571 4.7366C21.1071 4.7366 11.3571 11.9554 8.16964 22.4554L5.26339 14.2991C4.98214 13.4554 4.04464 12.9866 3.20089 13.2679C2.35714 13.5491 1.88839 14.4866 2.16964 15.3304L5.73214 25.5491C6.01339 26.2991 6.95089 26.8616 7.79464 26.8616Z" fill="white"/>
<path d="M59.5446 46.9241L55.7009 36.7991C55.5134 36.2366 55.0446 35.7678 54.4821 35.5803C53.9196 35.3928 53.3571 35.2991 52.7946 35.5803L42.4821 39.5178C41.6384 39.7991 41.1696 40.8303 41.5446 41.6741C41.8259 42.5178 42.8571 42.9866 43.7009 42.6116L50.0759 40.1741C46.5134 47.5803 38.9196 52.4553 30.2946 52.4553C20.8259 52.4553 12.4821 46.5491 9.57589 37.7366C9.20089 36.8928 8.26339 36.4241 7.41964 36.7053C6.57589 36.9866 6.10714 37.9241 6.38839 38.7678C9.76339 48.8928 19.3259 55.7366 30.2009 55.7366C40.5134 55.7366 49.7009 49.6428 53.4509 40.3616L56.4509 48.1428C56.7321 48.7991 57.2946 49.1741 57.9509 49.1741C58.1384 49.1741 58.3259 49.1741 58.5134 49.0803C59.4509 48.7053 59.9196 47.7678 59.5446 46.9241Z" fill="white"/>
</svg>
